<?xml version="1.0" standalone="no"?>
<!DOCTYPE svg PUBLIC "-//W3C//DTD SVG 20010904//EN"
 "http://www.w3.org/TR/2001/REC-SVG-20010904/DTD/svg10.dtd">
<svg version="1.0" xmlns="http://www.w3.org/2000/svg"
 width="736.000000pt" height="736.000000pt" viewBox="0 0 736.000000 736.000000"
 preserveAspectRatio="xMidYMid meet">
<metadata>
Created by potrace 1.14, written by Peter Selinger 2001-2017
</metadata>
<g transform="translate(0.000000,736.000000) scale(0.100000,-0.100000)"
fill="#000000" stroke="none">
<path d="M1995 7053 c-68 -9 -236 -56 -320 -90 -494 -197 -790 -536 -870 -997
-19 -114 -20 -338 0 -447 34 -191 110 -356 221 -478 l37 -41 -28 -83 c-47
-137 -36 -288 26 -392 34 -56 123 -136 185 -166 61 -30 62 -32 77 -90 15 -58
14 -60 -19 -163 -80 -254 -109 -474 -101 -781 3 -121 13 -267 22 -325 68 -455
262 -895 552 -1255 105 -131 322 -341 456 -441 249 -187 595 -358 863 -427 84
-21 85 -21 113 -72 72 -125 176 -169 308 -130 27 8 68 28 90 44 l40 29 21 -83
c40 -165 117 -282 224 -340 49 -28 61 -30 155 -30 99 0 102 1 149 33 l47 34
44 -22 c61 -30 147 -37 211 -16 64 22 133 82 164 144 l24 48 35 -12 c19 -7 63
-13 100 -13 119 -2 222 73 255 184 13 46 15 92 12 236 -3 164 -1 180 15 185
25 8 259 166 352 239 560 435 906 1055 986 1764 19 171 7 515 -25 696 -38 216
-98 418 -178 595 -23 49 -35 100 -49 210 -150 1127 -597 1734 -1340 1821 -340
39 -783 -65 -1224 -289 -117 -59 -365 -208 -481 -287 l-91 -63 -5 83 c-4 58
-13 99 -30 137 -28 61 -113 167 -150 186 -24 13 -25 18 -31 140 -11 249 -100
445 -263 583 -125 106 -257 150 -438 148 -61 -1 -124 -4 -141 -6z m268 -148
c99 -21 164 -54 235 -120 70 -65 130 -159 162 -253 25 -76 49 -268 35 -281 -6
-5 -37 -12 -70 -15 l-60 -7 -24 76 c-60 191 -209 332 -363 343 -37 2 -68 3
-68 0 0 -3 22 -19 49 -37 94 -60 189 -188 241 -323 29 -75 31 -98 9 -98 -5 0
-40 -14 -77 -32 -37 -17 -70 -32 -74 -32 -4 -1 -25 35 -46 79 -69 142 -184
231 -313 242 -40 4 -60 2 -58 -4 2 -6 32 -34 67 -63 35 -28 84 -80 109 -113
50 -67 113 -190 113 -220 0 -10 -23 -46 -50 -80 -28 -34 -62 -84 -75 -111
l-24 -49 -21 48 c-55 129 -173 261 -274 309 -60 28 -156 47 -194 37 -23 -6
-21 -9 34 -46 212 -140 367 -415 351 -621 -6 -79 -31 -130 -79 -162 -114 -75
-286 -7 -354 140 -28 60 -29 69 -28 206 l1 142 -24 -22 c-44 -41 -76 -123 -81
-208 -5 -93 9 -164 51 -243 58 -110 174 -179 312 -185 161 -7 282 75 329 222
6 16 10 14 46 -18 83 -75 246 -88 371 -29 73 34 157 110 188 171 36 71 27 76
-44 27 -69 -47 -129 -69 -235 -86 -164 -26 -250 36 -237 174 8 87 48 160 136
248 194 193 492 237 623 91 50 -56 61 -104 55 -237 -13 -282 -175 -533 -493
-761 -49 -35 -95 -64 -101 -64 -7 0 -13 -4 -13 -10 0 -5 2 -10 4 -10 20 0 153
33 182 45 20 8 37 15 39 15 1 0 11 -19 21 -42 66 -146 -29 -300 -251 -409
-184 -89 -378 -126 -624 -116 -268 10 -427 75 -494 201 -18 34 -22 57 -22 136
1 52 6 107 13 122 l11 27 73 -34 c80 -38 201 -68 257 -63 l36 3 -60 32 c-203
107 -366 270 -462 464 -75 152 -88 216 -88 424 0 189 7 241 52 380 45 142 105
246 207 364 257 297 759 502 1069 436z m2601 -830 c302 -53 531 -274 553 -535
8 -95 -14 -163 -70 -218 l-44 -43 -86 64 c-273 207 -562 302 -892 296 l-120
-3 -3 64 c-3 54 1 73 27 125 57 116 196 215 341 244 30 6 64 13 75 15 46 9
138 5 219 -9z m-780 -939 c59 -34 121 -107 173 -203 51 -94 57 -87 58 69 l0
108 83 0 c155 0 318 -48 457 -135 41 -25 75 -49 75 -52 0 -3 -18 -21 -40 -40
-37 -32 -145 -181 -137 -190 2 -2 26 6 52 17 262 112 464 60 524 -135 12 -37
21 -92 21 -122 0 -48 2 -54 15 -43 12 10 25 3 77 -45 80 -74 145 -105 220
-105 53 0 58 -2 64 -26 12 -49 -2 -167 -26 -214 -12 -24 -76 -99 -140 -165
-65 -66 -125 -135 -135 -154 -27 -53 -17 -137 23 -201 l32 -52 -19 -26 c-48
-69 -65 -190 -35 -260 12 -29 14 -55 9 -117 -35 -399 -303 -652 -758 -714 -43
-6 -110 -11 -149 -11 -63 0 -74 -3 -108 -30 -41 -32 -138 -83 -204 -106 -188
-67 -418 -58 -614 24 -203 85 -386 282 -452 487 -8 24 -40 69 -81 113 -171
183 -320 482 -359 720 -24 146 21 325 120 477 34 52 48 65 68 65 70 0 159 93
182 190 10 42 16 51 39 56 64 13 110 43 132 86 21 41 21 50 13 183 -5 77 -9
207 -9 289 l0 149 55 49 c91 83 90 82 143 53 25 -14 74 -32 109 -39 l63 -13
-3 -38 -3 -38 48 40 c127 104 198 135 299 130 55 -3 83 -10 118 -31z m-1249
-265 c22 -10 51 -30 64 -44 l24 -26 -48 -93 c-26 -51 -49 -94 -50 -96 -2 -2
-21 16 -43 40 -33 35 -43 41 -54 30 -10 -10 -10 -18 1 -45 51 -128 54 -143 37
-209 -25 -100 -30 -173 -17 -236 13 -57 12 -58 -21 -109 -18 -29 -35 -52 -38
-52 -5 -1 -73 261 -116 446 l-12 52 39 43 c61 67 101 159 107 245 l5 73 41 0
c22 0 59 -9 81 -19z m3404 -971 c0 -9 -4 -8 -9 5 -5 11 -9 27 -9 35 0 9 4 8 9
-5 5 -11 9 -27 9 -35z m-4828 -21 c-5 -13 -10 -19 -10 -12 -1 15 10 45 15 40
3 -2 0 -15 -5 -28z m4836 -31 c-3 -7 -5 -2 -5 12 0 14 2 19 5 13 2 -7 2 -19 0
-25z m-4850 -30 c-3 -7 -5 -2 -5 12 0 14 2 19 5 13 2 -7 2 -19 0 -25z m4803
14 c0 -5 -7 -17 -15 -28 -14 -18 -14 -17 -4 9 12 27 19 34 19 19z m57 -34 c-3
-7 -5 -2 -5 12 0 14 2 19 5 13 2 -7 2 -19 0 -25z m-4783 -68 c5 -20 3 -19 -8
5 -7 17 -16 41 -20 55 -5 20 -3 19 8 -5 7 -16 16 -41 20 -55z m-87 33 c-3 -10
-5 -4 -5 12 0 17 2 24 5 18 2 -7 2 -21 0 -30z m4880 -15 c-3 -7 -5 -2 -5 12 0
14 2 19 5 13 2 -7 2 -19 0 -25z m-117 -2 c0 -2 -8 -10 -17 -17 -16 -13 -17
-12 -4 4 13 16 21 21 21 13z m-4773 -43 c-3 -10 -5 -4 -5 12 0 17 2 24 5 18 2
-7 2 -21 0 -30z m4900 -20 c-3 -10 -5 -2 -5 17 0 19 2 27 5 18 2 -10 2 -26 0
-35z m-4910 -65 c-2 -13 -4 -5 -4 17 -1 22 1 32 4 23 2 -10 2 -28 0 -40z
m4804 15 c13 -16 12 -17 -3 -4 -10 7 -18 15 -18 17 0 8 8 3 21 -13z m116 -35
c-2 -13 -4 -5 -4 17 -1 22 1 32 4 23 2 -10 2 -28 0 -40z m-314 -4 c63 -21 131
-95 151 -165 71 -239 -89 -557 -346 -686 -95 -48 -212 -66 -272 -43 l-25 9 24
59 c23 56 52 182 57 250 3 30 8 36 42 47 56 19 112 79 152 163 45 92 86 117
176 109 52 -5 58 -3 58 14 0 32 -47 54 -115 53 l-61 0 13 70 c7 39 12 86 13
104 0 31 1 32 43 32 24 0 64 -7 90 -16z m238 -11 c13 -16 12 -17 -3 -4 -10 7
-18 15 -18 17 0 8 8 3 21 -13z m-4854 -136 c-2 -23 -3 -1 -3 48 0 50 1 68 3
42 2 -26 2 -67 0 -90z m4940 -14 c-2 -21 -4 -4 -4 37 0 41 2 58 4 38 2 -21 2
-55 0 -75z m-4687 -48 c0 -5 -5 -3 -10 5 -5 8 -10 20 -10 25 0 6 5 3 10 -5 5
-8 10 -19 10 -25z m-253 -142 c-2 -27 -3 -5 -3 47 0 52 1 74 3 48 2 -27 2 -69
0 -95z m4941 -18 l-1 -50 -7 55 c-5 30 -8 73 -8 95 l1 40 8 -45 c4 -25 7 -67
7 -95z m-4639 50 c0 -5 -8 6 -19 25 -11 19 -19 40 -19 45 0 6 8 -6 19 -25 11
-19 19 -39 19 -45z m-292 -157 c-2 -13 -4 -3 -4 22 0 25 2 35 4 23 2 -13 2
-33 0 -45z m4920 -30 c-2 -13 -4 -5 -4 17 -1 22 1 32 4 23 2 -10 2 -28 0 -40z
m-4910 -45 c-3 -10 -5 -2 -5 17 0 19 2 27 5 18 2 -10 2 -26 0 -35z m397 1 c3
-8 2 -12 -4 -9 -6 3 -10 10 -10 16 0 14 7 11 14 -7z m4503 -41 c-3 -10 -5 -4
-5 12 0 17 2 24 5 18 2 -7 2 -21 0 -30z m-4890 -20 c-3 -10 -5 -4 -5 12 0 17
2 24 5 18 2 -7 2 -21 0 -30z m4878 -53 c-4 -23 -9 -39 -11 -37 -3 2 -2 23 2
46 4 23 9 40 11 37 3 -3 2 -23 -2 -46z m-75 20 c-6 -11 -13 -20 -16 -20 -2 0
0 9 6 20 6 11 13 20 16 20 2 0 0 -9 -6 -20z m-4793 -32 c-3 -7 -5 -2 -5 12 0
14 2 19 5 13 2 -7 2 -19 0 -25z m443 2 c6 -11 8 -20 6 -20 -3 0 -10 9 -16 20
-6 11 -8 20 -6 20 3 0 10 -9 16 -20z m-433 -42 c-3 -8 -6 -5 -6 6 -1 11 2 17
5 13 3 -3 4 -12 1 -19z m468 -18 c9 -16 13 -30 11 -30 -3 0 -12 14 -21 30 -9
17 -13 30 -11 30 3 0 12 -13 21 -30z m4372 -12 c-3 -8 -6 -5 -6 6 -1 11 2 17
5 13 3 -3 4 -12 1 -19z m-4830 -10 c-3 -8 -6 -5 -6 6 -1 11 2 17 5 13 3 -3 4
-12 1 -19z m4713 18 c0 -2 -8 -10 -17 -17 -16 -13 -17 -12 -4 4 13 16 21 21
21 13z m105 -66 c-9 -41 -17 -33 -9 9 4 17 9 30 11 27 3 -2 2 -19 -2 -36z
m-4808 -2 c-3 -8 -6 -5 -6 6 -1 11 2 17 5 13 3 -3 4 -12 1 -19z m4653 9 c0 -2
-19 -21 -42 -42 l-43 -40 40 43 c36 39 45 47 45 39z m-4643 -49 c-3 -8 -6 -5
-6 6 -1 11 2 17 5 13 3 -3 4 -12 1 -19z m4780 -20 c-3 -8 -6 -5 -6 6 -1 11 2
17 5 13 3 -3 4 -12 1 -19z m-237 -22 c0 -2 -8 -10 -17 -17 -16 -13 -17 -12 -4
4 13 16 21 21 21 13z m227 -18 c-3 -8 -6 -5 -6 6 -1 11 2 17 5 13 3 -3 4 -12
1 -19z m-4177 -98 c0 -8 -5 -22 -10 -30 -8 -11 -9 -8 -4 12 3 16 -1 37 -11 55
l-17 28 21 -25 c11 -14 21 -32 21 -40z m3850 45 c0 -6 -76 -45 -87 -45 -4 1
12 12 37 25 50 27 50 27 50 20z m-460 -59 c0 -2 -8 -10 -17 -17 -16 -13 -17
-12 -4 4 13 16 21 21 21 13z m97 -22 c-3 -3 -12 -4 -19 -1 -8 3 -5 6 6 6 11 1
17 -2 13 -5z m150 0 c-3 -3 -12 -4 -19 -1 -8 3 -5 6 6 6 11 1 17 -2 13 -5z
m-277 -17 c0 -1 -30 -32 -67 -67 l-68 -65 65 68 c60 62 70 72 70 64z m-3414
-74 c-8 -15 -15 -25 -16 -21 0 12 23 58 27 54 3 -2 -2 -17 -11 -33z m-426 -38
c0 -5 -5 -3 -10 5 -5 8 -10 20 -10 25 0 6 5 3 10 -5 5 -8 10 -19 10 -25z
m3700 -19 c0 -2 -8 -10 -17 -17 -16 -13 -17 -12 -4 4 13 16 21 21 21 13z m826
-63 c-14 -26 -25 -45 -26 -41 0 12 43 98 48 94 2 -2 -8 -26 -22 -53z m-4462
-50 c20 -40 34 -73 31 -73 -5 0 -75 136 -75 146 0 12 6 1 44 -73z m3462 2
c-11 -8 -25 -15 -30 -15 -6 1 0 7 14 15 32 19 40 18 16 0z m959 -35 c-9 -16
-18 -30 -21 -30 -2 0 2 14 11 30 9 17 18 30 21 30 2 0 -2 -13 -11 -30z m-1006
16 c-2 -2 -15 -9 -29 -15 -24 -11 -24 -11 -6 3 16 13 49 24 35 12z m-3168 -73
c-12 -20 -14 -14 -5 12 4 9 9 14 11 11 3 -2 0 -13 -6 -23z m3194 7 c10 -11 16
-20 13 -20 -3 0 -13 9 -23 20 -10 11 -16 20 -13 20 3 0 13 -9 23 -20z m946
-13 c-10 -9 -11 -8 -5 6 3 10 9 15 12 12 3 -3 0 -11 -7 -18z m-885 -39 l29
-33 -32 29 c-31 28 -38 36 -30 36 2 0 16 -15 33 -32z m-3280 -15 c-8 -15 -15
-25 -16 -21 0 12 23 58 27 54 3 -2 -2 -17 -11 -33z m-25 -60 c-12 -20 -14 -14
-5 12 4 9 9 14 11 11 3 -2 0 -13 -6 -23z m-56 -39 c9 -15 12 -23 6 -20 -11 7
-35 46 -28 46 3 0 12 -12 22 -26z m26 -37 c-10 -9 -11 -8 -5 6 3 10 9 15 12
12 3 -3 0 -11 -7 -18z m4099 -7 c-12 -16 -24 -30 -26 -30 -3 0 4 14 16 30 12
17 24 30 26 30 3 0 -4 -13 -16 -30z m-595 -10 c10 -11 16 -20 13 -20 -3 0 -13
9 -23 20 -10 11 -16 20 -13 20 3 0 13 -9 23 -20z m565 -34 c0 -2 -8 -10 -17
-17 -16 -13 -17 -12 -4 4 13 16 21 21 21 13z m-3166 -20 c41 -17 90 -75 105
-125 17 -60 13 -161 -10 -237 -43 -142 -142 -249 -249 -269 -31 -5 -45 1 -125
54 -142 95 -138 89 -133 190 4 71 10 97 37 152 88 178 257 284 375 235z m2647
-3 c13 -16 12 -17 -3 -4 -10 7 -18 15 -18 17 0 8 8 3 21 -13z m459 -57 c0 -2
-8 -10 -17 -17 -16 -13 -17 -12 -4 4 13 16 21 21 21 13z m-346 -98 c26 -45 8
-25 -38 42 -27 40 -29 46 -9 23 15 -17 37 -46 47 -65z m306 49 c0 -2 -10 -12
-22 -23 l-23 -19 19 23 c18 21 26 27 26 19z m-130 -142 c-46 -46 -85 -83 -87
-81 -4 3 159 166 167 166 2 0 -33 -38 -80 -85z m-900 -19 c142 -34 290 -95
401 -167 95 -63 161 -117 154 -129 -2 -4 -53 -35 -112 -70 -179 -104 -181
-106 -193 -150 -6 -24 -10 -114 -8 -222 l3 -183 -28 -58 c-32 -64 -64 -87
-123 -87 -81 0 -190 105 -231 223 -24 69 -25 320 -1 415 l16 64 -28 -27 c-71
-68 -119 -240 -105 -375 9 -78 37 -174 65 -215 46 -69 12 -182 -65 -216 -76
-34 -139 -6 -215 95 -106 140 -118 513 -24 771 6 18 4 17 -20 -5 -108 -97
-164 -287 -153 -522 5 -127 28 -227 68 -296 22 -39 17 -56 -22 -72 -44 -19
-115 -7 -161 26 -157 112 -217 527 -119 822 15 45 24 82 20 82 -17 0 -111
-117 -134 -165 -26 -58 -49 -142 -60 -217 -5 -39 -15 -57 -54 -97 -58 -60
-103 -84 -157 -85 -52 -1 -75 18 -104 86 -99 231 28 614 236 713 61 29 157 18
245 -28 l73 -37 41 28 c134 96 287 133 525 128 124 -3 178 -9 270 -30z"/>
<path d="M4558 5907 l-187 -92 30 -72 c17 -40 35 -73 41 -73 5 0 22 9 36 21
53 41 231 169 236 169 2 0 35 -44 72 -97 36 -54 68 -99 69 -101 1 -1 47 19
103 45 56 25 105 43 109 40 3 -4 23 -71 44 -148 21 -78 40 -143 42 -145 4 -5
131 28 141 37 6 6 -153 381 -170 398 -2 2 -54 -22 -115 -53 -61 -32 -112 -56
-113 -54 -1 1 -31 51 -67 111 -35 59 -68 107 -74 106 -5 0 -94 -42 -197 -92z"/>
<path d="M3883 4945 c-216 -67 -388 -366 -370 -644 7 -106 27 -174 72 -242
l36 -52 -17 -46 c-10 -25 -21 -50 -25 -55 -12 -14 -111 57 -166 118 -46 51
-105 162 -118 224 -8 39 -22 40 -80 7 -111 -65 -192 -183 -202 -293 -10 -104
36 -185 122 -218 25 -9 45 -20 45 -24 0 -3 -7 -28 -16 -54 -11 -31 -15 -69
-12 -111 6 -104 67 -173 177 -200 l44 -12 -4 -69 c-20 -326 20 -542 132 -709
118 -176 316 -257 521 -214 214 45 449 221 571 427 46 77 50 82 75 75 45 -13
164 -6 212 11 98 37 160 107 160 184 0 30 1 31 33 24 118 -26 201 11 252 113
27 54 30 69 30 155 -1 83 -27 220 -42 220 -2 0 -21 -13 -41 -30 -81 -64 -210
-97 -340 -86 -40 3 -77 8 -82 11 -4 3 -4 20 1 38 4 17 11 48 14 67 4 32 10 37
54 53 148 52 290 229 343 426 26 96 28 253 6 327 -51 166 -149 249 -293 248
-173 0 -343 -146 -417 -359 -15 -44 -30 -79 -33 -77 -47 28 -151 67 -219 84
-70 17 -86 24 -81 37 51 127 62 321 26 429 -28 81 -59 130 -110 174 -67 57
-163 73 -258 43z m177 -85 c42 -21 70 -55 100 -122 29 -63 25 -68 -30 -40 -45
22 -53 23 -99 12 -60 -14 -115 -52 -164 -112 -78 -96 -135 -270 -122 -376 6
-52 6 -54 -34 -97 -36 -39 -41 -42 -54 -27 -62 72 -84 229 -51 374 64 279 289
472 454 388z m60 -195 c36 -19 59 -61 69 -126 l8 -50 -26 25 c-114 108 -263
-2 -287 -212 -6 -60 -8 -62 -52 -87 -24 -14 -46 -25 -48 -25 -10 0 -2 141 11
189 32 122 115 239 197 280 51 25 88 27 128 6z m915 -136 c56 -16 117 -80 145
-154 50 -130 22 -334 -65 -480 -60 -99 -157 -187 -232 -209 -18 -6 -22 -2 -28
31 -6 36 -3 42 43 89 103 107 160 309 132 472 -22 130 -94 200 -194 189 -55
-7 -53 -3 19 35 69 37 118 44 180 27z m-129 -105 c21 -10 45 -34 61 -62 52
-88 41 -294 -21 -428 -22 -48 -90 -134 -105 -134 -6 0 -41 79 -41 93 0 4 13
26 30 48 70 97 92 236 51 318 -34 66 -106 89 -171 56 -46 -24 -37 0 21 55 68
67 117 82 175 54z m-790 -29 c17 -26 12 -58 -14 -87 -20 -24 -59 -23 -72 1
-38 72 42 153 86 86z m642 -207 c17 -17 15 -78 -5 -100 -39 -44 -91 -7 -79 58
9 47 56 70 84 42z m-414 -53 c155 -54 280 -161 349 -300 45 -92 61 -161 55
-249 -11 -170 -114 -281 -296 -316 -96 -19 -258 -8 -362 25 -267 84 -412 244
-412 455 0 203 119 355 317 407 82 21 254 10 349 -22z m-829 -868 c59 -165
324 -265 472 -177 19 11 36 20 38 20 3 0 14 -23 26 -50 46 -107 172 -183 304
-183 73 -1 108 11 172 59 l32 24 3 -23 c4 -27 -89 -167 -112 -167 -9 0 -80 11
-159 26 -236 42 -441 112 -606 207 -75 43 -209 139 -220 157 -4 6 -1 52 6 102
8 61 15 85 20 73 4 -11 15 -42 24 -68z"/>
<path d="M2674 1714 c-37 -109 -95 -198 -182 -281 l-66 -63 34 0 c81 1 181 78
226 173 28 61 33 157 9 177 -12 10 -16 9 -21 -6z"/>
</g>
</svg>
